<svg xmlns="http://www.w3.org/2000/svg" viewBox="0 0 451.84 244.26"><defs><style>.cls-1{fill:#304193;}</style></defs><g id="Capa_4" data-name="Capa 4"><path class="cls-1" d="M288.59,395.31c-65.31,0-118.26,54.7-118.26,122.11s52.95,122.15,118.26,122.15h67.19V600h-24.7v14.63H288.59c-52.36,0-94.79-43.83-94.79-97.91s42.43-97.89,94.79-97.89,94.75,43.85,94.75,97.89v43.85H355.78V517.44c0-38.33-30.08-69.43-67.19-69.43s-67.23,31.1-67.23,69.43,30.1,69.44,67.23,69.44H406.81V517.42C406.81,450,353.89,395.31,288.59,395.31Zm42.49,165.24H289.36c-23.05,0-41.73-19.3-41.73-43.11s18.68-43.1,41.73-43.1,41.72,19.3,41.72,43.1Z" transform="translate(-170.33 -395.31)"/><path class="cls-1" d="M622.18,541.66c0,54.08-42.44,97.91-94.79,97.91h-144v-25h144c37.12,0,67.22-29.57,67.22-67.93S564.51,473,527.39,473c-30.48,0-56.22,21-64.44,49.67H434.41c8.57-45,46.92-78.87,93-78.87C579.74,443.77,622.18,487.61,622.18,541.66Z" transform="translate(-170.33 -395.31)"/></g></svg>